<?xml version="1.0" encoding="UTF-8"?>
<svg version="1.1" xmlns="http://www.w3.org/2000/svg" width="2753" height="1836">
<path d="M0 0 C908.49 0 1816.98 0 2753 0 C2753 605.88 2753 1211.76 2753 1836 C1844.51 1836 936.02 1836 0 1836 C0 1230.12 0 624.24 0 0 Z " fill="#000000" transform="translate(0,0)"/>
<path d="M0 0 C0.78433879 -0.00367669 1.56867758 -0.00735338 2.37678421 -0.01114148 C5.01363705 -0.02218335 7.65045049 -0.02602304 10.287323 -0.02983093 C12.17461777 -0.03609528 14.06191131 -0.04274206 15.94920349 -0.04974365 C22.15548848 -0.07079252 28.36177374 -0.08114784 34.56808472 -0.09111023 C36.70475146 -0.09515769 38.84141808 -0.09927461 40.97808456 -0.10346031 C51.0176886 -0.12251498 61.05728527 -0.13674459 71.09690392 -0.14507228 C82.68317398 -0.15484159 94.26925283 -0.18115206 105.85545552 -0.22157317 C114.81184746 -0.25174629 123.76818464 -0.26654236 132.72462642 -0.26985329 C138.07319866 -0.27220272 143.4215667 -0.28114906 148.77008438 -0.30631447 C153.80489056 -0.32962053 158.83935847 -0.33381814 163.87420464 -0.32355309 C165.71842894 -0.32305821 167.56267003 -0.32936444 169.40684319 -0.34310913 C189.46459124 -0.48419041 189.46459124 -0.48419041 196.22749519 5.89728832 C200.58851896 10.54653198 202.62167119 15.03913562 202.62577188 21.470649 C202.63129137 22.53314109 202.63681085 23.59563317 202.6424976 24.69032198 C202.63633164 26.43555129 202.63633164 26.43555129 202.63004112 28.21603775 C202.6335472 29.46006526 202.63705327 30.70409277 202.64066559 31.98581809 C202.65014008 35.45158094 202.64711764 38.91723891 202.64211005 42.38300698 C202.6388491 46.14875187 202.64712122 49.91447408 202.6539284 53.68021178 C202.66424764 60.28448252 202.66706886 66.88872394 202.66501617 73.49300194 C202.66197117 83.31384169 202.67027905 93.13464889 202.68076543 102.95548232 C202.70012824 121.51481508 202.7057345 140.07413682 202.70687954 158.63347849 C202.70779791 172.96394943 202.71191082 187.29441603 202.71828079 201.62488556 C202.72007583 205.74685788 202.72185545 209.8688302 202.72363055 213.99080253 C202.72429369 215.52781791 202.72429369 215.52781791 202.72497023 217.0958841 C202.73728229 245.92652837 202.74517099 274.75717113 202.74428368 303.58781815 C202.74423694 305.21898601 202.74423694 305.21898601 202.74418926 306.88310677 C202.74402304 312.39498469 202.74382496 317.90686262 202.74361984 323.41874054 C202.74357995 324.51345872 202.74354006 325.6081769 202.74349896 326.73606836 C202.74341809 328.9498564 202.74333449 331.16364444 202.74324818 333.37743248 C202.74202254 367.82397027 202.75703672 402.27046871 202.78439331 436.71699524 C202.81510121 475.39950253 202.83232658 514.08198395 202.83046687 552.76450419 C202.8303176 556.88773394 202.83022019 561.01096368 202.83015823 565.13419342 C202.83013492 566.14946971 202.83011162 567.16474601 202.8300876 568.21078825 C202.830026 584.56358571 202.84280878 600.91634905 202.86002276 617.26913636 C202.87696017 633.69878 202.87896795 650.12837362 202.86580412 666.55802116 C202.85840227 676.32317698 202.86210971 686.08818104 202.8816888 695.85332084 C202.89365961 702.37381073 202.89113013 708.89419032 202.8767478 715.41467508 C202.86896018 719.13149496 202.86750334 722.84802047 202.88366251 726.56481996 C202.90091636 730.56842529 202.88725395 734.57133233 202.87055016 738.57493973 C202.88545469 740.30612204 202.88545469 740.30612204 202.90066034 742.07227772 C202.82692248 750.39551944 201.47530307 756.82818452 195.68527222 763.02217102 C188.21740952 767.81287539 181.01139054 768.58869887 172.2885437 768.53535461 C171.21743347 768.54061157 170.14632324 768.54586853 169.04275513 768.55128479 C165.52630741 768.56441497 162.01031774 768.55577183 158.49386597 768.54560852 C156.03724583 768.5476311 153.58062627 768.55054408 151.12400818 768.55430603 C145.98559835 768.55871981 140.8473454 768.55232807 135.70895386 768.5382843 C129.13294981 768.52118421 122.55731291 768.53104518 115.98132229 768.54900169 C110.9120356 768.55985725 105.84283555 768.55638516 100.77354622 768.54861832 C98.34912128 768.54662169 95.9246884 768.54905663 93.50027275 768.55605698 C90.10917275 768.5637014 86.71866245 768.55202503 83.3276062 768.53535461 C82.33257584 768.54142731 81.33754547 768.5475 80.31236267 768.55375671 C72.26304245 768.48069257 65.28932693 767.06372573 59.37277222 761.14717102 C54.44014329 754.16483481 54.22582503 747.82797835 54.24972439 739.59879589 C54.24857054 738.62727692 54.2474167 737.65575795 54.24622789 736.65479901 C54.24356852 733.38003779 54.24807785 730.10532515 54.2525177 726.83056641 C54.25208186 724.4668652 54.25120672 722.10316405 54.24992853 719.73946315 C54.24815501 714.59044072 54.24949925 709.44142871 54.25356674 704.29240799 C54.25959818 696.63598502 54.25990288 688.97956935 54.25902475 681.32314445 C54.25771033 668.44424505 54.26105427 655.56535077 54.26704216 642.68645287 C54.27295676 629.93252728 54.27680762 617.17860384 54.27789497 604.4246769 C54.27796371 603.63203024 54.27803245 602.83938358 54.27810328 602.02271732 C54.2784416 597.99735642 54.27874299 593.97199553 54.27903015 589.94663463 C54.28113123 561.42615767 54.28787045 532.90568351 54.29733276 504.38520813 C54.30651535 476.67589839 54.31359987 448.9665894 54.31784058 421.25727844 C54.3179721 420.40333609 54.31810363 419.54939374 54.31823914 418.66957435 C54.31955765 410.0940277 54.32083346 401.51848104 54.322078 392.94293438 C54.32461429 375.47315616 54.32743555 358.003378 54.33042908 340.53359985 C54.33056637 339.73034664 54.33070366 338.92709342 54.33084511 338.0994992 C54.34004763 284.44872197 54.35591382 230.79794633 54.37277222 177.14717102 C52.72277222 177.14717102 51.07277222 177.14717102 49.37277222 177.14717102 C49.22581909 177.8767804 49.07886597 178.60638977 48.92745972 179.35810852 C47.31955727 186.84317163 45.18335599 193.96919766 42.70846558 201.20478821 C40.95031024 206.36175507 39.32318636 211.53812676 37.81027222 216.77217102 C36.24414973 222.18800785 34.6323167 227.58334261 32.93527222 232.95967102 C31.07482541 238.86240782 29.26976331 244.77977958 27.49777222 250.70967102 C24.4549188 260.89182909 21.36333819 271.05877742 18.2638855 281.22383118 C16.79849973 286.03109943 15.33575618 290.8391714 13.87277222 295.64717102 C13.28945184 297.56384163 12.7061185 299.4805083 12.12277222 301.39717102 C11.83402222 302.34592102 11.54527222 303.29467102 11.24777222 304.27217102 C10.37277222 307.14717102 9.49777222 310.02217102 8.62277222 312.89717102 C8.35046783 313.79191132 8.07816345 314.68665161 7.79760742 315.60850525 C7.21227827 317.53167995 6.62689673 319.45483872 6.04144287 321.37797546 C4.66240127 325.90821144 3.28391997 330.43861323 1.90841675 334.96992493 C-1.76163123 347.05386016 -5.4592918 359.12922049 -9.16629028 371.20185852 C-9.66387313 372.82260521 -10.16145204 374.4433531 -10.6590271 376.06410217 C-12.70800788 382.73782206 -14.75716654 389.41148696 -16.80789185 396.08467102 C-18.08120709 400.22824476 -19.35352006 404.37212518 -20.62522507 408.51619339 C-21.10079206 410.06526404 -21.57671042 411.61422688 -22.05302811 413.16306686 C-24.72665045 421.85736368 -27.35973654 430.56139871 -29.90371132 439.29463005 C-31.23810038 443.86704672 -32.63507999 448.41607988 -34.06472778 452.95967102 C-34.29490601 453.69153625 -34.52508423 454.42340149 -34.76223755 455.17744446 C-34.94584839 455.76042297 -35.12945923 456.34340149 -35.31863403 456.94404602 C-36.75142909 461.52118088 -38.1290404 466.1143589 -39.50222778 470.70967102 C-42.5450812 480.89182909 -45.63666181 491.05877742 -48.7361145 501.22383118 C-49.91001343 505.0748629 -51.08217987 508.92642073 -52.25418091 512.7780304 C-53.12962428 515.65504677 -54.00537957 518.53196808 -54.88113403 521.40888977 C-56.03586774 525.2028308 -57.18943009 528.99712509 -58.34207153 532.79170227 C-61.1149805 541.91663553 -63.89913986 551.03778723 -66.71170044 560.15058899 C-69.45082975 569.02608776 -72.17020945 577.90428349 -74.76882935 586.82197571 C-77.34217308 595.63450442 -80.0423974 604.40874979 -82.72439575 613.18867493 C-83.60169945 616.06351707 -84.47636047 618.939147 -85.34988403 621.81513977 C-88.11950628 630.93247093 -90.90156694 640.04565107 -93.71170044 649.15058899 C-96.45082975 658.02608776 -99.17020945 666.90428349 -101.76882935 675.82197571 C-104.04932263 683.63162519 -106.43270536 691.40977262 -108.81082153 699.19013977 C-110.00111235 703.08546347 -111.18064496 706.98375958 -112.34988403 710.88545227 C-114.07983639 716.64850712 -115.84009123 722.40159292 -117.62722778 728.14717102 C-117.95368286 729.19743469 -118.28013794 730.24769836 -118.6164856 731.32978821 C-119.62506042 734.54504351 -120.65414664 737.75302272 -121.68972778 740.95967102 C-121.99386597 741.93154358 -122.29800415 742.90341614 -122.61135864 743.90473938 C-126.38024792 755.40019944 -131.86049642 764.56458437 -142.44754028 770.81123352 C-148.50226647 773.35511111 -155.85941557 773.28982014 -162.13894653 771.38545227 C-172.11368131 766.57858008 -177.97823606 758.11903524 -181.75222778 747.89717102 C-182.38732912 745.98382777 -183.01179065 744.06692966 -183.62722778 742.14717102 C-183.99203247 741.10818665 -184.35683716 740.06920227 -184.73269653 738.99873352 C-187.40324335 731.30686728 -189.66420642 723.54482498 -191.82644653 715.69795227 C-195.13536703 703.79067021 -198.61529325 691.94049253 -202.17947388 680.1073761 C-203.13003471 676.95034858 -204.0761328 673.79200781 -205.02175903 670.63349915 C-208.34385674 659.56380745 -211.76040159 648.53053836 -215.2888031 637.52490234 C-217.27510644 631.30962815 -219.12433303 625.07484359 -220.81472778 618.77217102 C-223.92418624 607.45237584 -227.25198026 596.20259122 -230.62722778 584.95967102 C-230.88953186 584.08569672 -231.15183594 583.21172241 -231.42208862 582.31126404 C-234.59715513 571.74637914 -237.84025215 561.20950439 -241.24954224 550.71748352 C-243.78452892 542.83815397 -245.99206869 534.87145921 -248.14407349 526.87983704 C-249.72869215 521.06413801 -251.57074339 515.43945633 -253.67874146 509.79341125 C-255.1534171 505.67912313 -256.29173953 501.48692791 -257.43972778 497.27217102 C-259.46863089 489.98799054 -261.68607985 482.80348646 -264.12722778 475.64717102 C-266.79048871 467.83270805 -269.14469921 459.97476034 -271.35769653 452.02217102 C-273.09930834 445.82977348 -275.05279416 439.73554016 -277.12722778 433.64717102 C-280.41182888 423.99485473 -283.42016798 414.26086532 -285.98806763 404.3910675 C-286.57277332 402.1639125 -286.57277332 402.1639125 -287.45779419 400.18647766 C-288.75651802 396.79943029 -288.91025496 394.91154543 -287.63040161 391.45503235 C-286.00343515 388.28400383 -284.23214904 385.25292651 -282.37722778 382.20967102 C-281.72552612 381.09648499 -281.07382446 379.98329895 -280.40237427 378.83638 C-278.49868742 375.59338299 -276.56555455 372.36954145 -274.62722778 369.14717102 C-273.74539971 367.64888686 -272.86606844 366.14912705 -271.99050903 364.64717102 C-270.43704661 361.9846503 -268.87258423 359.32915875 -267.29910278 356.67842102 C-263.9672087 351.04849247 -260.70575106 345.37797932 -257.43972778 339.70967102 C-256.48271973 338.04883484 -256.48271973 338.04883484 -255.50637817 336.35444641 C-254.19833302 334.08380035 -252.8904733 331.81304744 -251.58279419 329.54219055 C-248.43390725 324.07547122 -245.28039515 318.61142215 -242.12722778 313.14717102 C-240.87720428 310.98051791 -239.62720432 308.81385123 -238.37722778 306.64717102 C-235.87722778 302.31383769 -233.37722778 297.98050435 -230.87722778 293.64717102 C-230.25839722 292.57450989 -229.63956665 291.50184875 -229.00198364 290.39668274 C-227.7528726 288.23160031 -226.50368649 286.0665612 -225.25442505 283.90156555 C-222.11520469 278.46101396 -218.97732216 273.01969886 -215.84207153 267.57685852 C-209.8197545 257.12510903 -203.78053441 246.68417554 -197.68972778 236.27217102 C-192.61447655 227.59454861 -187.60464012 218.88111534 -182.62722778 210.14717102 C-177.08721049 200.42601485 -171.4934797 190.73822444 -165.84378052 181.08027649 C-159.69221493 170.56086417 -153.60937065 160.00217906 -147.52713013 149.44258118 C-145.6219526 146.13802114 -143.7130579 142.83563623 -141.80300903 139.53388977 C-140.53600034 137.3425307 -139.26907266 135.15112479 -138.00222778 132.95967102 C-137.38710327 131.89627502 -136.77197876 130.83287903 -136.13821411 129.73725891 C-133.02563442 124.34527519 -129.94067258 118.93981868 -126.90066528 113.50654602 C-126.30721313 112.44717834 -125.71376099 111.38781067 -125.10232544 110.29634094 C-123.98024488 108.28863296 -122.862492 106.27849808 -121.74978638 104.26557922 C-121.25043579 103.37185608 -120.75108521 102.47813293 -120.23660278 101.55732727 C-119.58643188 100.38375671 -119.58643188 100.38375671 -118.92312622 99.18647766 C-117.66641275 97.20883494 -116.34975205 95.72468365 -114.62722778 94.14717102 C-115.95484693 98.31713211 -117.5017797 102.28148917 -119.29519653 106.27217102 C-119.85258755 107.52054412 -120.40978676 108.76900287 -120.96682739 110.01753235 C-121.26571869 110.68507538 -121.56460999 111.35261841 -121.87255859 112.04039001 C-129.12839886 128.26514734 -136.1173239 144.60092867 -143.06472778 160.95967102 C-149.52411268 176.16499726 -155.98872079 191.36686435 -162.56472778 206.52217102 C-169.25111976 221.93640326 -175.88411579 237.37333586 -182.50322342 252.81655121 C-183.30525218 254.68756583 -184.10754385 256.5584675 -184.90991211 258.42933655 C-186.42445548 261.96128454 -187.93810523 265.49361408 -189.45144653 269.02607727 C-190.1239444 270.59424446 -190.1239444 270.59424446 -190.81002808 272.1940918 C-191.66508011 274.19128345 -192.51095678 276.19243277 -193.34680176 278.19773865 C-194.2247886 280.22016146 -195.1686188 282.21488607 -196.16571045 284.18132019 C-198.60854624 289.2178116 -200.23178409 292.82684811 -198.74783325 298.36933899 C-198.06043242 300.30231687 -197.35141515 302.22767211 -196.62722778 304.14717102 C-196.05916065 306.02132604 -195.49209728 307.89586053 -194.94427681 309.7760334 C-194.32994744 311.88402842 -193.69805387 313.98605073 -193.06134033 316.08738708 C-192.72831091 317.18752829 -192.72831091 317.18752829 -192.38855362 318.30989456 C-192.16051922 319.06314892 -191.93248482 319.81640327 -191.69754028 320.59248352 C-191.2204156 322.17267042 -190.743439 323.75290205 -190.26660156 325.33317566 C-189.01708599 329.47302876 -187.7659347 333.61238549 -186.51431274 337.75160217 C-184.51880808 344.35166273 -182.52556431 350.95240598 -180.53280258 357.55329514 C-179.84615106 359.82680791 -179.15864333 362.10006029 -178.4710083 364.37327576 C-175.84079846 373.0758946 -173.25010165 381.78932774 -170.69358826 390.5138855 C-169.37657733 395.00118305 -168.03768006 399.48159437 -166.68972778 403.95967102 C-166.44593384 404.77371399 -166.20213989 405.58775696 -165.95095825 406.4264679 C-164.6211073 410.86326481 -163.27632377 415.29494658 -161.91238403 419.72138977 C-161.6345105 420.629776 -161.35663696 421.53816223 -161.07034302 422.47407532 C-160.53665793 424.21782883 -159.99861028 425.96025489 -159.45559692 427.7011261 C-159.21575073 428.48769592 -158.97590454 429.27426575 -158.72879028 430.08467102 C-158.51561157 430.77431946 -158.30243286 431.4639679 -158.08279419 432.17451477 C-157.62722778 434.14717102 -157.62722778 434.14717102 -157.62722778 438.14717102 C-154.98722778 438.14717102 -152.34722778 438.14717102 -149.62722778 438.14717102 C-149.23084106 436.24838196 -149.23084106 436.24838196 -148.82644653 434.31123352 C-147.63507052 428.95891673 -146.06724309 423.7556344 -144.43972778 418.52217102 C-143.81204511 416.48183059 -143.18444325 414.44146529 -142.55691528 412.40107727 C-142.07690063 410.84670959 -142.07690063 410.84670959 -141.58718872 409.26094055 C-140.06729751 404.33095773 -138.56586602 399.3953901 -137.06472778 394.45967102 C-136.77380249 393.50431458 -136.4828772 392.54895813 -136.18313599 391.56465149 C-134.31637295 385.42988196 -132.46591192 379.2904095 -130.62722778 373.14717102 C-127.03804908 361.15534476 -123.38296088 349.18369165 -119.73171997 337.21064758 C-116.67799666 327.19510261 -113.62955385 317.17826043 -110.62722778 307.14717102 C-107.03804908 295.15534476 -103.38296088 283.18369165 -99.73171997 271.21064758 C-96.67799666 261.19510261 -93.62955385 251.17826043 -90.62722778 241.14717102 C-87.91691464 232.09172771 -85.16986501 223.04772748 -82.41238403 214.00654602 C-81.22791165 210.12256339 -80.04842416 206.23712346 -78.87332153 202.35029602 C-76.00793964 192.88364443 -73.09375152 183.43783126 -70.06472778 174.02217102 C-67.51759118 166.09195425 -65.15377493 158.12581147 -62.89431763 150.10932922 C-58.90602514 135.99235334 -54.55331022 121.98720034 -50.06472778 108.02217102 C-47.51781813 100.0918764 -45.15377752 92.12582065 -42.89431763 84.10932922 C-38.62723593 69.00554994 -33.94711461 54.02805638 -29.11624146 39.09614563 C-27.47194913 33.96719875 -25.97788684 28.82651867 -24.61624146 23.61567688 C-22.41157061 15.20111009 -20.56334522 8.21734262 -13.50222778 2.70967102 C-8.88897911 0.20247066 -5.1251053 -0.00128367 0 0 Z " fill="#FEFEFE" transform="translate(1545.6272277832031,611.8528289794922)"/>
<path d="M0 0 C1.62581759 -0.00461302 3.251631 -0.01096863 4.87743574 -0.01890898 C9.3301298 -0.03557054 13.78247989 -0.0273704 18.23517501 -0.0149641 C23.04304741 -0.00590285 27.85086122 -0.01988873 32.65872192 -0.03088379 C42.07170615 -0.04866251 51.48456274 -0.04483177 60.89755195 -0.03323323 C68.54886448 -0.02419611 76.20014126 -0.02297612 83.8514576 -0.02732849 C84.94084329 -0.02794142 86.03022898 -0.02855436 87.15262635 -0.02918586 C89.36577325 -0.03046478 91.57892013 -0.03176163 93.792067 -0.03307623 C114.54109802 -0.04448027 135.29005834 -0.03137134 156.03907777 -0.00987476 C173.83684267 0.00799353 191.63450321 0.00489397 209.43226624 -0.0135498 C230.10599519 -0.03496393 250.77966217 -0.043379 271.45340067 -0.03110075 C273.65866728 -0.02982657 275.86393389 -0.02856909 278.06920052 -0.02732849 C279.69669667 -0.02640284 279.69669667 -0.02640284 281.35707153 -0.02545848 C288.99733955 -0.02200703 296.6375682 -0.02782958 304.27783012 -0.0372467 C313.59151672 -0.04847418 322.9050685 -0.04541093 332.21873968 -0.02412373 C336.96936663 -0.01362307 341.71976893 -0.00947471 346.47039413 -0.02272034 C350.82229323 -0.03467056 355.1737602 -0.02803847 359.52562029 -0.00681013 C361.09684691 -0.00235516 362.6681103 -0.00458543 364.23931312 -0.01431328 C382.74820206 -0.12008536 382.74820206 -0.12008536 389.9565348 6.19930983 C395.99613503 12.43279302 396.32729742 19.7916796 396.33363342 28.04821777 C396.34195694 28.97927338 396.35028046 29.91032898 396.3588562 30.86959839 C396.38285564 33.93268068 396.39171588 36.99554962 396.39833069 40.05871582 C396.40730439 42.19951946 396.41642637 44.34032248 396.4256897 46.48112488 C396.44215475 50.96395386 396.44987534 55.44670838 396.45277405 59.92956543 C396.45815631 65.65588443 396.4958413 71.38149756 396.54151821 77.10761738 C396.57135188 81.52846292 396.57849898 85.9491397 396.5795002 90.37007713 C396.58368964 92.48027976 396.59607229 94.59048349 396.61701775 96.70058632 C396.8243926 119.39741914 396.8243926 119.39741914 388.71473694 127.94543457 C381.5716451 132.09839494 375.60454651 132.94390572 367.49398804 132.87974548 C366.45754172 132.88357005 365.4210954 132.88739461 364.35324162 132.89133507 C360.89327924 132.90059318 357.43371982 132.88864545 353.97377014 132.87683105 C351.48812189 132.87929981 349.00247468 132.88313897 346.51683044 132.88824463 C341.17106555 132.89657496 335.82541149 132.89608778 330.47965431 132.88805962 C322.74524065 132.87680952 315.01094897 132.88588493 307.2765459 132.90062142 C294.7194053 132.92436837 282.16227977 132.9377553 269.6051178 132.94177246 C268.47893284 132.94213976 268.47893284 132.94213976 267.32999667 132.94251449 C258.94847751 132.94506191 250.56695951 132.94562627 242.18544006 132.94458008 C239.14304098 132.94424702 236.10064189 132.94396164 233.0582428 132.94372559 C232.30746172 132.9436628 231.55668064 132.94360001 230.78314862 132.94353532 C218.26795096 132.94293069 205.752823 132.95780105 193.23765439 132.98455864 C185.52131037 133.00036813 177.80519123 133.00261736 170.0888448 132.98742462 C164.18117465 132.97685204 158.27365144 132.98663588 152.3659935 133.00398254 C149.94118882 133.00771929 147.51636253 133.00457057 145.09157753 132.99411201 C141.78723176 132.98080656 138.48384156 132.99189559 135.17953491 133.00914001 C134.21514616 132.99933324 133.2507574 132.98952646 132.25714475 132.97942251 C127.98099169 133.02572668 125.65763395 133.11677587 121.95521832 135.41410923 C118.51946426 139.14540508 118.88125525 142.35205787 118.88679504 147.19367981 C118.88382392 147.99632065 118.8808528 148.79896148 118.87779164 149.62592477 C118.8690813 152.33050159 118.86759443 155.03503427 118.86610413 157.73962402 C118.8614776 159.67266943 118.85645316 161.60571391 118.85105896 163.53875732 C118.83791687 168.80120313 118.83148646 174.06363616 118.8270483 179.32609582 C118.82412043 182.6116829 118.82001617 185.89726647 118.81554413 189.18285179 C118.80186431 199.45631721 118.79220008 209.72977462 118.78834224 220.00324851 C118.78386042 231.87422508 118.76630875 243.74508656 118.73734164 255.61602813 C118.71574506 264.78380137 118.70563904 273.95154218 118.70430112 283.1193406 C118.70325162 288.59854468 118.6973131 294.07764065 118.67948151 299.55681801 C118.66303585 304.71056917 118.66082826 309.86413056 118.66962051 315.01789856 C118.67039278 316.91056004 118.66602336 318.80323158 118.65616226 320.69586754 C118.6434973 323.27788542 118.6492897 325.85922565 118.65974426 328.4412384 C118.65168786 329.19182677 118.64363145 329.94241514 118.63533092 330.71574861 C118.67734476 335.14643812 119.20343663 338.04024803 122.02723694 341.50793457 C125.46722328 344.09326822 129.32185876 343.79782647 133.4556427 343.78640747 C134.58170437 343.79509607 134.58170437 343.79509607 135.73051476 343.8039602 C138.24710886 343.82097147 140.76351968 343.82383766 143.28016663 343.82678223 C145.08369395 343.83607963 146.88721697 343.84624802 148.69073486 343.85722351 C153.58909295 343.88455876 158.48742223 343.89968338 163.3858366 343.91265154 C168.50415038 343.92826664 173.62240517 343.95506202 178.74067688 343.98068237 C188.43387177 344.02749887 198.12707771 344.06422909 207.820328 344.09735525 C218.85531373 344.13555635 229.89024028 344.18497178 240.92517614 344.2353394 C263.62581922 344.33870196 286.32650031 344.42794831 309.02723694 344.50793457 C307.67165697 347.97303853 306.1900037 351.12618988 304.29676819 354.33215332 C303.74899719 355.26462891 303.2012262 356.19710449 302.63685608 357.15783691 C302.04380676 358.16024414 301.45075745 359.16265137 300.83973694 360.19543457 C299.56311028 362.36826805 298.28708884 364.54145722 297.01161194 366.71496582 C296.35225647 367.83725586 295.692901 368.9595459 295.01356506 370.11584473 C291.84691468 375.52359305 288.71734935 380.95254288 285.58973694 386.38293457 C284.96816711 387.46147705 284.34659729 388.54001953 283.70619202 389.65124512 C282.44339274 391.84262595 281.18077887 394.03411364 279.91835022 396.22570801 C276.1669567 402.73664714 272.41032699 409.24456651 268.65467834 415.75305176 C265.51541448 421.19378793 262.37742197 426.63524934 259.24208069 432.07824707 C252.89903903 443.08740612 246.5423095 454.08850082 240.15223694 465.07043457 C239.55080872 466.10635742 238.94938049 467.14228027 238.32972717 468.20959473 C237.77873352 469.15496094 237.22773987 470.10032715 236.66004944 471.07434082 C236.17423401 471.90908936 235.68841858 472.74383789 235.18788147 473.60388184 C234.02723694 475.50793457 234.02723694 475.50793457 233.02723694 476.50793457 C231.63448759 476.60681449 230.23678361 476.63701155 228.8405304 476.63923645 C227.93765289 476.64324463 227.03477539 476.64725281 226.10453796 476.65138245 C224.60689407 476.65058937 224.60689407 476.65058937 223.07899475 476.64978027 C222.03349457 476.6532547 220.98799438 476.65672913 219.91081238 476.66030884 C217.63160488 476.66768171 215.35239013 476.67301889 213.07317352 476.6765995 C209.46753045 476.68374124 205.86202535 476.69939084 202.25642395 476.71794128 C192.00166222 476.77051676 181.74697426 476.81839538 171.49208069 476.8338623 C165.22734107 476.84393267 158.96294529 476.87323653 152.69834137 476.91518211 C150.30774789 476.92751354 147.91710588 476.93260949 145.52648163 476.93038368 C142.18163264 476.92803609 138.83777278 476.95015826 135.49305725 476.97790527 C134.50272491 476.97130386 133.51239258 476.96470245 132.49205017 476.957901 C128.14592361 477.01717529 125.69971742 477.09288335 121.93562317 479.4160614 C118.57333113 483.10163007 118.91154083 486.12688059 118.97668457 490.88705444 C118.98303565 491.65713306 118.98938672 492.42721167 118.99593025 493.220626 C119.01042483 494.91476049 119.02722511 496.60887638 119.04598808 498.30296898 C119.08705608 502.0259626 119.116921 505.74902299 119.14743912 509.47211576 C119.16395702 511.47982075 119.18103455 513.48752122 119.19862735 515.49521708 C119.30976304 528.43161058 119.34022466 541.36831682 119.37394607 554.30510497 C119.40717619 566.88645244 119.46529045 579.46635401 119.60658264 592.04699707 C119.71869061 602.04210168 119.77264689 612.03568556 119.76101547 622.03143704 C119.75692629 627.31101099 119.77997458 632.58698971 119.87354851 637.86581039 C120.29493373 662.81025615 119.13230205 680.98055337 104.10862923 701.54822159 C100.49907242 706.6809648 97.52876508 712.16180684 94.46473694 717.63293457 C93.22808655 719.78045951 91.98885816 721.92650392 90.74598694 724.07043457 C88.24294204 728.40201964 85.74301921 732.7353806 83.24598694 737.07043457 C77.22283955 747.52506408 71.18201248 757.96841899 65.08973694 768.38293457 C60.01448571 777.06055698 55.00464927 785.77399025 50.02723694 794.50793457 C44.48721964 804.22909074 38.89348885 813.91688115 33.24378967 823.5748291 C27.08956952 834.09878082 21.00353698 844.66173594 14.91835022 855.22570801 C11.79043546 860.65453398 8.65866446 866.08113432 5.52723694 871.50793457 C1.7298373 878.08966334 -2.06724399 884.67157529 -5.86338806 891.25402832 C-13.22153257 904.012094 -20.58811287 916.765191 -27.97276306 929.50793457 C-29.35758211 925.35347742 -27.67719061 922.92570365 -25.94151306 919.14465332 C-25.60372833 918.38718811 -25.2659436 917.6297229 -24.91792297 916.8493042 C-24.17376105 915.18227277 -23.42536782 913.51712559 -22.67338562 911.85360718 C-20.57676387 907.21169664 -18.51489621 902.55434972 -16.44932556 897.89855957 C-16.00613983 896.90150497 -15.5629541 895.90445038 -15.1063385 894.87718201 C-9.8923529 883.12112453 -4.87014979 871.28428585 0.15223694 859.44543457 C2.086602 854.89052153 4.02172576 850.33593099 5.95692444 845.78137207 C6.44519714 844.63186066 6.93346985 843.48234924 7.4365387 842.29800415 C13.08865832 828.99813472 18.78176681 815.71586031 24.47769928 802.43471146 C25.27163982 800.58348534 26.06549545 798.73222283 26.85932922 796.88095093 C29.56734783 790.56590909 32.27608716 784.25117693 34.98536682 777.93667603 C36.33345303 774.79410306 37.68051954 771.65109434 39.02723694 768.50793457 C38.33090149 768.51681702 37.63456604 768.52569946 36.91712952 768.53485107 C30.32686828 768.61528889 23.73674578 768.67604616 17.14610291 768.71518326 C13.75844736 768.73598128 10.37120038 768.76415344 6.98377991 768.80969238 C3.08149048 768.8583815 -0.82022458 768.88094386 -4.72276306 768.89855957 C-5.9282782 768.91920471 -7.13379333 768.93984985 -8.37583923 768.96112061 C-16.92276266 768.96338457 -22.42032473 767.90248676 -28.78526306 761.82043457 C-33.98529623 753.94609862 -34.40741527 746.25573289 -34.3530798 737.00934601 C-34.35773971 735.76745661 -34.36239963 734.52556722 -34.36720076 733.24604481 C-34.37707896 729.80478701 -34.37357316 726.3640187 -34.36436709 722.92279067 C-34.35764953 719.17680069 -34.36832727 715.43085308 -34.37676293 711.68487215 C-34.38913287 705.12148798 -34.39034085 698.55817529 -34.38421249 691.9947834 C-34.37512376 682.23481524 -34.38315155 672.47491322 -34.39450373 662.71495013 C-34.4141778 645.28389649 -34.41651669 627.85287258 -34.41130853 610.42181049 C-34.406753 595.16768264 -34.40734849 579.91356656 -34.41314888 564.65943909 C-34.41390574 562.61401368 -34.41466172 560.56858828 -34.41541683 558.52316287 C-34.41656201 555.44098095 -34.41771188 552.35879904 -34.41887607 549.27661713 C-34.4295822 520.61886638 -34.43430508 491.96111956 -34.42640591 463.30336761 C-34.42610873 462.22291787 -34.42581156 461.14246813 -34.42550538 460.02927749 C-34.42305639 451.25500093 -34.42044483 442.48072442 -34.41782125 433.70644791 C-34.40771692 399.47407978 -34.4160773 365.2417607 -34.4393158 331.00939941 C-34.46537686 292.55685557 -34.47823955 254.10434124 -34.47112805 215.65178823 C-34.47041197 211.55333551 -34.46973759 207.45488279 -34.4690876 203.35643005 C-34.46891779 202.34727236 -34.46874798 201.33811467 -34.46857303 200.29837644 C-34.46626835 185.0531189 -34.47425502 169.80788873 -34.48737907 154.56263733 C-34.50227369 137.22963993 -34.5031557 119.8967068 -34.48530816 102.56371081 C-34.47572893 92.86074717 -34.47721311 83.15793332 -34.49454285 73.45497961 C-34.50500809 66.97608183 -34.50096622 60.4972985 -34.48506282 54.01841204 C-34.47640553 50.32542212 -34.47406819 46.63272635 -34.48933213 42.93975121 C-34.50561878 38.96185766 -34.49099674 34.98441856 -34.47333431 31.00652313 C-34.48298482 29.85996237 -34.49263534 28.7134016 -34.50257829 27.53209656 C-34.42745181 19.3268182 -32.86029622 13.2204772 -27.78526306 6.69543457 C-19.17421816 -0.0020448 -10.51621227 -0.06500882 0 0 Z " fill="#FEFEFE" transform="translate(1038.9727630615234,449.4920654296875)"/>
<path d="M0 0 C0.33 0 0.66 0 1 0 C1.06846459 29.29184127 1.12154286 58.58367686 1.15319599 87.8755818 C1.15694803 91.33518618 1.160831 94.79479039 1.16479492 98.25439453 C1.16558185 98.94312806 1.16636878 99.63186159 1.16717956 100.34146583 C1.18022701 111.48761087 1.2038772 122.63370941 1.23145839 133.77982688 C1.25953101 145.22011181 1.27595568 156.66035903 1.28226548 168.1006794 C1.28617717 174.52513312 1.29537386 180.94948142 1.31719017 187.37390137 C1.33756017 193.42144186 1.34383268 199.46883356 1.33932304 205.51640511 C1.34014801 207.73515697 1.34611048 209.95391384 1.35761642 212.17263603 C1.37256831 215.20470975 1.36894351 218.23622354 1.36076355 221.26831055 C1.36950207 222.14381687 1.3782406 223.0193232 1.38724393 223.92136002 C1.33986867 230.42978878 0.24260024 235.92680708 -3.6875 241.3125 C-10.43350199 246.23525821 -17.294971 246.43541955 -25.33789062 246.38818359 C-27.00285835 246.39606903 -27.00285835 246.39606903 -28.70146179 246.40411377 C-32.35320301 246.41726626 -36.0045047 246.40859215 -39.65625 246.3984375 C-42.20398034 246.40045959 -44.75171011 246.40337215 -47.29943848 246.40713501 C-52.63214172 246.41155195 -57.96468892 246.40543588 -63.29736328 246.39111328 C-69.44590795 246.37478919 -75.59415408 246.38007864 -81.74269152 246.3965925 C-87.67900588 246.41189282 -93.61522821 246.41021493 -99.55155945 246.4014473 C-102.06809023 246.39944997 -104.58462867 246.40188809 -107.10115051 246.40888596 C-110.62167369 246.41652792 -114.14162839 246.40485691 -117.66210938 246.38818359 C-118.69611374 246.39425629 -119.7301181 246.40032898 -120.79545593 246.40658569 C-126.84803059 246.35364028 -131.57153335 245.79321529 -137 243 C-137.77944183 241.05537987 -137.77944183 241.05537987 -138 239 C-136.8828125 236.38818359 -136.8828125 236.38818359 -135.125 233.3984375 C-134.47708496 232.28178711 -133.82916992 231.16513672 -133.16162109 230.01464844 C-132.44125985 228.80132593 -131.72071462 227.58811263 -131 226.375 C-130.26393032 225.11561318 -129.52908316 223.85551111 -128.79541016 222.59472656 C-127.28127633 219.99617393 -125.76084724 217.40146844 -124.23535156 214.80957031 C-121.53183527 210.21094922 -118.87552759 205.58587953 -116.21899414 200.95996094 C-110.30826839 190.67077489 -104.32990174 180.42154352 -98.33935547 170.17871094 C-93.84472573 162.47975166 -89.41400101 154.74531754 -85 147 C-79.4599827 137.27884383 -73.86625191 127.59105342 -68.21655273 117.93310547 C-62.06233258 107.40915375 -55.97630004 96.84619863 -49.89111328 86.28222656 C-46.76319852 80.85340058 -43.63141552 75.42680719 -40.5 70 C-39.24998121 67.83334417 -37.99998122 65.6666775 -36.75 63.5 C-34.25 59.16666667 -31.75 54.83333333 -29.25 50.5 C-28.6302832 49.42580811 -28.01056641 48.35161621 -27.37207031 47.24487305 C-26.13189239 45.09526366 -24.89165873 42.94568642 -23.65136719 40.79614258 C-20.7264977 35.72690788 -17.80219167 30.65735064 -14.87988281 25.5866394 C-13.50193062 23.19573403 -12.12365828 20.80501328 -10.74536133 18.41430664 C-9.77459018 16.73016037 -8.80428126 15.04574769 -7.83398438 13.36132812 C-7.24423828 12.33845703 -6.65449219 11.31558594 -6.046875 10.26171875 C-5.52963867 9.36412842 -5.01240234 8.46653809 -4.47949219 7.54174805 C-3.99125977 6.70297119 -3.50302734 5.86419434 -3 5 C-2.4627832 4.06647705 -1.92556641 3.1329541 -1.37207031 2.17114258 C-0.91928711 1.45466553 -0.46650391 0.73818848 0 0 Z " fill="#FEFEFE" transform="translate(1183,1134)"/>
<path d="M0 0 C0.66 0.33 1.32 0.66 2 1 C-0.64 5.62 -3.28 10.24 -6 15 C-7.29257726 11.12226821 -6.39023724 10.01070374 -4.6875 6.375 C-4.23761719 5.39273437 -3.78773438 4.41046875 -3.32421875 3.3984375 C-2 1 -2 1 0 0 Z " fill="#D2D2D2" transform="translate(1017,1364)"/>
<path d="M0 0 C0.33 0.66 0.66 1.32 1 2 C0.10333658 4.24310013 -0.89146683 6.44754321 -1.9375 8.625 C-2.50339844 9.81351563 -3.06929687 11.00203125 -3.65234375 12.2265625 C-4.09707031 13.14179687 -4.54179688 14.05703125 -5 15 C-5.66 14.67 -6.32 14.34 -7 14 C-5.23570801 9.02790438 -2.6060834 4.56561939 0 0 Z " fill="#B1B1B1" transform="translate(1430,706)"/>
</svg>
